<svg width="27" height="26" viewBox="0 0 27 26" fill="none" xmlns="http://www.w3.org/2000/svg">
<path d="M8.17404 0H19.024C23.1574 0 26.5157 3.35833 26.5157 7.49167V18.3417C26.5157 20.3286 25.7264 22.2341 24.3215 23.6391C22.9165 25.044 21.011 25.8333 19.024 25.8333H8.17404C4.04071 25.8333 0.682373 22.475 0.682373 18.3417V7.49167C0.682373 5.50475 1.47167 3.59922 2.87663 2.19426C4.28159 0.789299 6.18713 0 8.17404 0ZM7.91571 2.58333C6.68245 2.58333 5.4997 3.07324 4.62766 3.94529C3.75562 4.81733 3.26571 6.00008 3.26571 7.23333V18.6C3.26571 21.1704 5.34529 23.25 7.91571 23.25H19.2824C20.5156 23.25 21.6984 22.7601 22.5704 21.888C23.4425 21.016 23.9324 19.8333 23.9324 18.6V7.23333C23.9324 4.66292 21.8528 2.58333 19.2824 2.58333H7.91571ZM20.3803 4.52083C20.8085 4.52083 21.2192 4.69094 21.522 4.99373C21.8248 5.29653 21.9949 5.7072 21.9949 6.13542C21.9949 6.56363 21.8248 6.97431 21.522 7.2771C21.2192 7.57989 20.8085 7.75 20.3803 7.75C19.9521 7.75 19.5414 7.57989 19.2386 7.2771C18.9358 6.97431 18.7657 6.56363 18.7657 6.13542C18.7657 5.7072 18.9358 5.29653 19.2386 4.99373C19.5414 4.69094 19.9521 4.52083 20.3803 4.52083ZM13.599 6.45833C15.3119 6.45833 16.9546 7.13876 18.1658 8.34994C19.3769 9.56111 20.0574 11.2038 20.0574 12.9167C20.0574 14.6295 19.3769 16.2722 18.1658 17.4834C16.9546 18.6946 15.3119 19.375 13.599 19.375C11.8862 19.375 10.2435 18.6946 9.03231 17.4834C7.82114 16.2722 7.14071 14.6295 7.14071 12.9167C7.14071 11.2038 7.82114 9.56111 9.03231 8.34994C10.2435 7.13876 11.8862 6.45833 13.599 6.45833ZM13.599 9.04167C12.5713 9.04167 11.5857 9.44992 10.859 10.1766C10.1323 10.9033 9.72404 11.889 9.72404 12.9167C9.72404 13.9444 10.1323 14.93 10.859 15.6567C11.5857 16.3834 12.5713 16.7917 13.599 16.7917C14.6268 16.7917 15.6124 16.3834 16.3391 15.6567C17.0658 14.93 17.474 13.9444 17.474 12.9167C17.474 11.889 17.0658 10.9033 16.3391 10.1766C15.6124 9.44992 14.6268 9.04167 13.599 9.04167Z" fill="#171717"/>
</svg>
