<svg width="27" height="26" viewBox="0 0 27 26" fill="none" xmlns="http://www.w3.org/2000/svg">
<path fill-rule="evenodd" clip-rule="evenodd" d="M13.3216 0C6.1877 0 0.404907 5.78279 0.404907 12.9167C0.404907 20.0505 6.1877 25.8333 13.3216 25.8333C20.4555 25.8333 26.2382 20.0505 26.2382 12.9167C26.2382 5.78279 20.4555 0 13.3216 0ZM2.98824 12.9167C2.98866 10.7661 3.66007 8.66919 4.90887 6.91833C6.15768 5.16746 7.92165 3.84985 9.9549 3.14917C11.9882 2.44849 14.1894 2.39966 16.2517 3.00948C18.314 3.6193 20.1347 4.85739 21.4599 6.55115C22.7851 8.24492 23.5489 10.31 23.6447 12.4584C23.7404 14.6069 23.1635 16.7317 21.9943 18.5367C20.8251 20.3417 19.1218 21.7369 17.1219 22.5278C15.1221 23.3187 12.9252 23.466 10.8377 22.949L11.7651 18.591C12.6525 19.3608 13.7543 19.654 14.8122 19.6346C15.9721 19.6127 17.1372 19.2213 18.1124 18.6078C19.0837 17.9968 19.9517 17.1094 20.427 16.0154C20.9408 14.836 21.1529 13.5472 21.0442 12.2654C20.9355 10.9835 20.5095 9.7489 19.8044 8.67285C19.0994 7.5968 18.1376 6.71318 17.0058 6.10169C15.8739 5.4902 14.6077 5.17008 13.3212 5.1702C12.0348 5.17031 10.7686 5.49067 9.63688 6.10236C8.50517 6.71406 7.54352 7.59785 6.83869 8.67403C6.13385 9.75021 5.70799 10.9849 5.59953 12.2668C5.49107 13.5487 5.70341 14.8374 6.21741 16.0167C6.28172 16.1772 6.37763 16.3232 6.49944 16.446C6.62125 16.5688 6.76649 16.6659 6.92653 16.7315C7.08657 16.7971 7.25815 16.8299 7.43111 16.828C7.60406 16.826 7.77486 16.7893 7.93337 16.7201C8.09188 16.6509 8.23487 16.5505 8.35387 16.425C8.47286 16.2995 8.56543 16.1513 8.62609 15.9893C8.68675 15.8274 8.71426 15.6549 8.70698 15.482C8.69971 15.3092 8.6578 15.1396 8.58374 14.9833C8.27757 14.2795 8.13207 13.5163 8.15782 12.7491C8.18356 11.982 8.3799 11.2303 8.73257 10.5485C9.08523 9.86678 9.58536 9.27218 10.1966 8.80793C10.8079 8.34369 11.5149 8.02147 12.2662 7.86469C13.0176 7.70791 13.7945 7.72051 14.5404 7.90157C15.2863 8.08263 15.9824 8.42761 16.5783 8.91143C17.1742 9.39525 17.6548 10.0058 17.9852 10.6986C18.3155 11.3914 18.4874 12.1491 18.4882 12.9167C18.4882 14.331 17.9587 15.6511 16.7354 16.421C16.1051 16.8188 15.3934 17.041 14.7644 17.0513C14.1482 17.0642 13.6768 16.8782 13.35 16.5359C13.0297 16.2001 12.677 15.5517 12.677 14.3375C12.677 13.5625 12.9728 12.9167 13.3267 11.2478C13.365 11.0808 13.3697 10.9079 13.3405 10.739C13.3113 10.5702 13.2488 10.4088 13.1567 10.2644C13.0645 10.1199 12.9445 9.99524 12.8037 9.89761C12.6629 9.79998 12.5041 9.73135 12.3365 9.6957C12.1689 9.66006 11.9958 9.65812 11.8275 9.68999C11.6591 9.72186 11.4988 9.78692 11.3558 9.88136C11.2128 9.97581 11.0901 10.0978 10.9947 10.2401C10.8993 10.3825 10.8332 10.5424 10.8002 10.7105L8.39774 22.0035C6.76103 21.1168 5.39433 19.8043 4.44213 18.2048C3.48992 16.6052 2.98759 14.7782 2.98824 12.9167Z" fill="#171717"/>
</svg>
