<svg width="25" height="22" viewBox="0 0 25 22" fill="none" xmlns="http://www.w3.org/2000/svg">
<path fill-rule="evenodd" clip-rule="evenodd" d="M19.1802 3.8613C18.7243 3.20513 17.505 2.28288 15.53 2.68072C14.3778 2.91192 13.6894 3.48155 13.2515 4.2333C12.7852 5.03413 12.5592 6.12301 12.5592 7.39013C12.5592 7.7327 12.4231 8.06124 12.1808 8.30348C11.9386 8.54571 11.6101 8.6818 11.2675 8.6818C8.21141 8.6818 5.30258 7.77376 2.85487 5.3183C2.67007 6.31456 2.59729 7.32836 2.63787 8.3408C2.70633 9.74355 3.04087 11.1502 3.83525 12.3553C4.6167 13.5398 5.90191 14.6248 8.05125 15.3068C8.26186 15.3736 8.4518 15.4933 8.60293 15.6545C8.75407 15.8156 8.86133 16.0129 8.91446 16.2274C8.96759 16.4418 8.96481 16.6663 8.9064 16.8794C8.84799 17.0925 8.73589 17.2871 8.58083 17.4445C7.89236 18.1506 7.1121 18.761 6.261 19.2593C7.63016 19.4013 8.95025 19.4117 10.1747 19.3006C12.6547 19.0758 14.6297 18.3667 15.8645 17.3631C18.4647 15.2551 19.8558 12.1112 19.5975 6.84376C19.5535 5.97834 20.3892 5.04447 20.7922 4.33534C20.1839 4.44901 19.5742 4.42834 19.1802 3.8613ZM2.10054 1.27151C2.3344 1.24433 2.57124 1.28158 2.78546 1.37925C2.99968 1.47691 3.18314 1.63127 3.316 1.82563C5.2225 4.61434 7.51133 5.77426 10.052 6.03776C10.176 4.95146 10.4692 3.87809 11.0208 2.93259C11.8294 1.54534 13.1443 0.524924 15.0224 0.147757C17.6186 -0.374076 19.5949 0.566257 20.7406 1.71713L23.0552 1.28442C23.2975 1.23904 23.5476 1.26389 23.7762 1.35604C24.0047 1.4482 24.2021 1.60381 24.3451 1.80451C24.4881 2.00521 24.5707 2.24263 24.5831 2.48875C24.5956 2.73486 24.5374 2.9794 24.4154 3.19351L22.1937 7.09692C22.3965 12.7299 20.831 16.6617 17.4933 19.3703C15.7237 20.8067 13.1895 21.6217 10.4085 21.8736C7.60562 22.1268 4.43716 21.8206 1.28808 20.901C1.01902 20.8225 0.78278 20.6586 0.615025 20.4341C0.44727 20.2096 0.357099 19.9365 0.35812 19.6563C0.359141 19.376 0.451298 19.1037 0.620684 18.8804C0.79007 18.6571 1.02749 18.4949 1.29712 18.4184C2.8807 17.9676 4.08712 17.5788 5.176 16.8981C3.62729 16.0766 2.48675 15.0019 1.67945 13.7774C0.558288 12.075 0.142371 10.1763 0.0597046 8.4648C-0.0229621 6.75334 0.223746 5.16717 0.484663 4.02405C0.633205 3.37176 0.806288 2.71817 1.04525 2.09301C1.12954 1.87264 1.27258 1.67956 1.45884 1.53474C1.64511 1.38992 1.86619 1.29888 2.10054 1.27151Z" fill="#171717"/>
</svg>
