<svg width="27" height="21" viewBox="0 0 27 21" fill="none" xmlns="http://www.w3.org/2000/svg">
<path d="M13.6827 0C14.787 0 15.9198 0.0284168 17.0177 0.0749168L18.3146 0.136917L19.5559 0.210542L20.7184 0.289333L21.7801 0.372C22.9323 0.460192 24.0166 0.95189 24.842 1.76059C25.6675 2.5693 26.1814 3.6432 26.2932 4.79338L26.3449 5.34233L26.4417 6.51775C26.5322 7.73579 26.5993 9.06362 26.5993 10.3333C26.5993 11.603 26.5322 12.9309 26.4417 14.1489L26.3449 15.3243C26.3281 15.5129 26.3113 15.695 26.2932 15.8733C26.1813 17.0237 25.6673 18.0977 24.8416 18.9065C24.0158 19.7152 22.9313 20.2068 21.7788 20.2947L20.7197 20.376L19.5572 20.4561L18.3146 20.5297L17.0177 20.5917C15.9067 20.64 14.7948 20.665 13.6827 20.6667C12.5706 20.665 11.4586 20.64 10.3476 20.5917L9.05074 20.5297L7.80945 20.4561L6.64695 20.376L5.5852 20.2947C4.43297 20.2065 3.34875 19.7148 2.52327 18.9061C1.69779 18.0974 1.18394 17.0235 1.07212 15.8733L1.02045 15.3243L0.923575 14.1489C0.824811 12.8794 0.772248 11.6067 0.765991 10.3333C0.765991 9.06362 0.833158 7.73579 0.923575 6.51775L1.02045 5.34233C1.03724 5.15375 1.05403 4.97162 1.07212 4.79338C1.1839 3.6434 1.69756 2.56966 2.52278 1.76099C3.34799 0.952309 4.43191 0.460482 5.58391 0.372L6.64437 0.289333L7.80687 0.210542L9.04945 0.136917L10.3463 0.0749168C11.4578 0.0266509 12.5701 0.00167308 13.6827 0ZM13.6827 2.58333C12.617 2.58333 11.5204 2.61175 10.4535 2.65567L9.19024 2.71638L7.97737 2.78742L6.83812 2.86492L5.79445 2.94629C5.24592 2.98521 4.72888 3.21708 4.33499 3.60081C3.94109 3.98454 3.69578 4.49534 3.64253 5.04267C3.49141 6.60429 3.34932 8.54825 3.34932 10.3333C3.34932 12.1184 3.49141 14.0624 3.64253 15.624C3.75233 16.7503 4.64616 17.6261 5.79445 17.7204L6.83812 17.8005L7.97737 17.878L9.19024 17.9503L10.4535 18.011C11.5204 18.0549 12.617 18.0833 13.6827 18.0833C14.7483 18.0833 15.8449 18.0549 16.9118 18.011L18.1751 17.9503L19.388 17.8792L20.5272 17.8017L21.5709 17.7204C22.1194 17.6815 22.6364 17.4496 23.0303 17.0659C23.4242 16.6821 23.6695 16.1713 23.7228 15.624C23.8739 14.0624 24.016 12.1184 24.016 10.3333C24.016 8.54825 23.8739 6.60429 23.7228 5.04267C23.6695 4.49534 23.4242 3.98454 23.0303 3.60081C22.6364 3.21708 22.1194 2.98521 21.5709 2.94629L20.5272 2.86621L19.388 2.78871L18.1751 2.71638L16.9118 2.65567C15.836 2.60938 14.7594 2.58527 13.6827 2.58333ZM11.0993 7.20104C11.0992 7.0748 11.13 6.95045 11.1889 6.8388C11.2478 6.72715 11.3332 6.63159 11.4374 6.56042C11.5417 6.48925 11.6618 6.44463 11.7872 6.43044C11.9127 6.41625 12.0397 6.43292 12.1572 6.479L12.2618 6.53067L17.6868 9.66167C17.7949 9.724 17.8862 9.81148 17.9532 9.91669C18.0202 10.0219 18.0608 10.1417 18.0716 10.266C18.0824 10.3902 18.063 10.5152 18.0151 10.6304C17.9673 10.7456 17.8923 10.8475 17.7966 10.9275L17.6868 11.005L12.2618 14.1373C12.1525 14.2006 12.0294 14.2362 11.9031 14.2411C11.7769 14.2459 11.6514 14.2198 11.5375 14.165C11.4237 14.1103 11.325 14.0285 11.2499 13.9269C11.1749 13.8252 11.1259 13.7068 11.1071 13.5819L11.0993 13.4656V7.20104Z" fill="#171717"/>
</svg>
