<svg width="40" height="41" viewBox="0 0 40 41" fill="none" xmlns="http://www.w3.org/2000/svg">
<path d="M20.0241 0.737305H19.9759C8.94419 0.737305 0 9.6923 0 20.7373C0 31.7823 8.94419 40.7373 19.9759 40.7373H20.0241C31.0558 40.7373 40 31.7823 40 20.7373C40 9.6923 31.0558 0.737305 20.0241 0.737305ZM20.0241 39.1373H19.9759C9.82646 39.1373 1.59807 30.899 1.59807 20.7373C1.59807 10.5756 9.82646 2.3373 19.9759 2.3373H20.0241C30.1735 2.3373 38.4019 10.5756 38.4019 20.7373C38.4019 30.899 30.1735 39.1373 20.0241 39.1373Z" fill="#171717"/>
<path d="M26.3924 12.6409C24.7444 13.0576 22.8367 13.3276 20.8758 13.3909L20.8325 13.3926V19.9409H27.3246C27.2869 17.4027 26.958 14.8772 26.3442 12.4142L26.3924 12.6409ZM20.8225 4.05422V11.9292C22.6238 11.8759 24.4144 11.6317 26.1644 11.2009L25.9896 11.2376C24.7311 7.25422 22.7718 4.64089 20.8225 4.05422ZM14.0141 11.2276C15.5555 11.6142 17.3434 11.8676 19.1778 11.9276L19.2194 11.9292V4.03589C17.2701 4.60256 15.2809 7.21922 14.0141 11.2276ZM31.9907 8.94756C29.8169 6.72307 27.0665 5.14969 24.0486 4.40422L23.9337 4.38089C25.5392 6.21536 26.7133 8.38699 27.3696 10.7359L27.3962 10.8509C29.0348 10.3565 30.6188 9.69642 32.1238 8.88089L31.9907 8.94756ZM28.7929 19.9409H36.7932C36.6307 16.3145 35.2905 12.8402 32.9762 10.0459L32.9978 10.0742C31.5162 10.9109 29.7967 11.6542 27.9955 12.2159L27.8041 12.2676C28.3917 14.5592 28.7496 17.1976 28.7912 19.9142L28.7929 19.9409ZM12.6773 19.9409H19.2261V13.3926C17.2713 13.3369 15.3283 13.0687 13.4314 12.5926L13.6179 12.6326C13.0223 15.0154 12.7067 17.4597 12.6773 19.9159V19.9409ZM27.3246 21.5359H20.8225V28.0692C22.8267 28.1276 24.7394 28.3976 26.5772 28.8592L26.3941 28.8209C26.9468 26.6459 27.283 24.1409 27.3246 21.5642V21.5359ZM13.6195 28.8342C15.2842 28.4092 17.2085 28.1342 19.1878 28.0759L19.2278 28.0742V21.5409H12.6773C12.7156 24.1476 13.0569 26.6559 13.6661 29.0576L13.6195 28.8342ZM19.2294 37.4309V29.5359C17.3484 29.5976 15.5589 29.8492 13.8359 30.2742L14.0141 30.2376C15.2825 34.2476 17.2701 36.8692 19.2294 37.4309ZM23.9337 37.0942C26.9964 36.3539 29.7905 34.769 31.999 32.5192L32.0023 32.5159C30.5964 31.7539 29.1188 31.1325 27.591 30.6609L27.4112 30.6126C26.754 33.0162 25.5598 35.2388 23.9188 37.1126L23.9337 37.0942ZM16.0583 4.40089C13.0214 5.14524 10.2521 6.72264 8.06125 8.95589L8.05792 8.95922C9.34803 9.66589 10.8512 10.3059 12.4227 10.7959L12.6008 10.8442C13.2579 8.45666 14.4449 6.24843 16.0732 4.38422L16.0566 4.40256L16.0583 4.40089ZM27.8041 29.2092C29.8 29.8176 31.5246 30.5626 33.1443 31.4709L33.0094 31.4009C35.3056 28.6238 36.6367 25.174 36.8015 21.5726L36.8032 21.5342H28.8029C28.7544 24.2045 28.402 26.8605 27.7525 29.4509L27.8041 29.2092ZM20.8225 29.5359V37.4192C22.7718 36.8326 24.7311 34.2192 25.9896 30.2276C24.3091 29.8169 22.5899 29.585 20.8608 29.5359H20.8225ZM12.2079 12.2559C10.3674 11.7017 8.59331 10.9466 6.91763 10.0042L7.04914 10.0726C4.75298 12.8496 3.42192 16.2995 3.25706 19.9009L3.25539 19.9392H11.2158C11.2541 17.1942 11.6136 14.5509 12.2578 12.0209L12.2079 12.2559ZM11.2075 21.5359H3.24707C3.42519 25.3126 4.82849 28.7292 7.06413 31.4309L7.04248 31.4026C8.51237 30.5709 10.222 29.8309 12.0098 29.2709L12.1996 29.2192C11.5795 26.7147 11.2472 24.1475 11.2091 21.5676L11.2075 21.5359ZM8.0496 32.5159C10.2123 34.7278 12.9445 36.2969 15.9434 37.0492L16.0583 37.0742C14.4576 35.2436 13.2845 33.079 12.6241 30.7376L12.5958 30.6209C10.9736 31.1194 9.40454 31.777 7.91143 32.5842L8.0496 32.5159Z" fill="#171717"/>
</svg>
