<svg width="40" height="41" viewBox="0 0 40 41" fill="none" xmlns="http://www.w3.org/2000/svg">
<path d="M14.4612 16.5466H17.353V25.118H14.4612V16.5466ZM14.4612 9.4037V2.26085C14.4612 1.88197 14.6135 1.5186 14.8847 1.25069C15.1558 0.982784 15.5236 0.832275 15.9071 0.832275H24.5824C24.9659 0.832275 25.3337 0.982784 25.6048 1.25069C25.876 1.5186 26.0283 1.88197 26.0283 2.26085V9.4037H23.1365V3.68942H17.353V9.4037H14.4612ZM26.0283 16.5466V25.118H23.1365V16.5466H26.0283ZM14.4612 32.2608H17.353V37.9751H23.1365V32.2608H26.0283V39.4037C26.0283 39.7826 25.876 40.1459 25.6048 40.4139C25.3337 40.6818 24.9659 40.8323 24.5824 40.8323H15.9071C15.5236 40.8323 15.1558 40.6818 14.8847 40.4139C14.6135 40.1459 14.4612 39.7826 14.4612 39.4037V32.2608Z" fill="#171717"/>
<path d="M33.4034 32.2608L36.622 28.6893L33.4063 25.1179H8.67865V32.2608H33.4034ZM34.0541 35.1179H7.23275C6.84928 35.1179 6.48151 34.9674 6.21035 34.6995C5.93919 34.4316 5.78686 34.0682 5.78686 33.6893V23.6894C5.78686 23.3105 5.93919 22.9471 6.21035 22.6792C6.48151 22.4113 6.84928 22.2608 7.23275 22.2608H34.0541C34.2585 22.2607 34.4605 22.3035 34.6469 22.3862C34.8334 22.469 34.9999 22.5898 35.1356 22.7408L39.6352 27.7408C39.8702 28.0022 40 28.3397 40 28.6893C40 29.039 39.8702 29.3765 39.6352 29.6379L35.1356 34.6379C34.9999 34.7889 34.8334 34.9097 34.6469 34.9925C34.4605 35.0752 34.2585 35.118 34.0541 35.1179ZM3.38378 12.9751L6.59656 9.40364H31.3242V16.5465H6.59945L3.38378 12.9751ZM5.9488 19.4036H32.7672C33.1507 19.4036 33.5185 19.2531 33.7897 18.9852C34.0608 18.7173 34.2131 18.3539 34.2131 17.9751V7.97507C34.2131 7.59619 34.0608 7.23282 33.7897 6.96491C33.5185 6.697 33.1507 6.5465 32.7672 6.5465H5.94591C5.74154 6.54644 5.53948 6.58919 5.35305 6.67193C5.16663 6.75467 5.00008 6.87551 4.86438 7.0265L0.364754 12.0265C0.129779 12.2879 0 12.6254 0 12.9751C0 13.3247 0.129779 13.6622 0.364754 13.9236L4.86438 18.9236C5.00008 19.0746 5.16663 19.1955 5.35305 19.2782C5.53948 19.3609 5.74154 19.4037 5.94591 19.4036H5.9488Z" fill="#171717"/>
</svg>
