<svg width="41" height="33" viewBox="0 0 41 33" fill="none" xmlns="http://www.w3.org/2000/svg">
<path d="M9.39583 8.68421C9.39583 7.99995 9.5284 7.3224 9.78595 6.69023C10.0435 6.05806 10.421 5.48365 10.8969 4.99981C11.3728 4.51597 11.9378 4.13216 12.5596 3.87031C13.1814 3.60846 13.8478 3.47368 14.5208 3.47368C15.1939 3.47368 15.8603 3.60846 16.4821 3.87031C17.1039 4.13216 17.6689 4.51597 18.1448 4.99981C18.6207 5.48365 18.9982 6.05806 19.2557 6.69023C19.5133 7.3224 19.6458 7.99995 19.6458 8.68421C19.6458 10.0661 19.1059 11.3914 18.1448 12.3686C17.1836 13.3458 15.8801 13.8947 14.5208 13.8947C13.1616 13.8947 11.858 13.3458 10.8969 12.3686C9.93579 11.3914 9.39583 10.0661 9.39583 8.68421ZM14.5208 0C12.2554 0 10.0828 0.914941 8.48096 2.54355C6.87909 4.17215 5.97917 6.38101 5.97917 8.68421C5.97917 10.9874 6.87909 13.1963 8.48096 14.8249C10.0828 16.4535 12.2554 17.3684 14.5208 17.3684C16.7862 17.3684 18.9588 16.4535 20.5607 14.8249C22.1626 13.1963 23.0625 10.9874 23.0625 8.68421C23.0625 6.38101 22.1626 4.17215 20.5607 2.54355C18.9588 0.914941 16.7862 0 14.5208 0ZM26.4792 0H24.7708V3.47368H26.4792C27.1522 3.47368 27.8186 3.60846 28.4404 3.87031C29.0622 4.13217 29.6272 4.51597 30.1031 4.99981C30.579 5.48365 30.9565 6.05806 31.214 6.69023C31.4716 7.3224 31.6042 7.99995 31.6042 8.68421C31.6042 9.36847 31.4716 10.046 31.214 10.6782C30.9565 11.3104 30.579 11.8848 30.1031 12.3686C29.6272 12.8525 29.0622 13.2363 28.4404 13.4981C27.8186 13.76 27.1522 13.8947 26.4792 13.8947H24.7708V17.3684H26.4792C28.7446 17.3684 30.9172 16.4535 32.519 14.8249C34.1209 13.1963 35.0208 10.9874 35.0208 8.68421C35.0208 6.38101 34.1209 4.17215 32.519 2.54355C30.9172 0.914941 28.7446 0 26.4792 0ZM0 29.5263C0 27.2231 0.899923 25.0143 2.5018 23.3857C4.10367 21.757 6.27628 20.8421 8.54167 20.8421H20.5C22.7654 20.8421 24.938 21.757 26.5399 23.3857C28.1417 25.0143 29.0417 27.2231 29.0417 29.5263V33H25.625V29.5263C25.625 28.1444 25.085 26.8191 24.1239 25.8419C23.1628 24.8648 21.8592 24.3158 20.5 24.3158H8.54167C7.18243 24.3158 5.87887 24.8648 4.91774 25.8419C3.95662 26.8191 3.41667 28.1444 3.41667 29.5263V33H0V31.2632V29.5263ZM41 29.5263C41 28.3859 40.7791 27.2566 40.3498 26.203C39.9205 25.1494 39.2914 24.1921 38.4982 23.3857C37.705 22.5792 36.7634 21.9396 35.7271 21.5032C34.6908 21.0667 33.58 20.8421 32.4583 20.8421H30.75V24.3158H32.4583C33.8176 24.3158 35.1211 24.8648 36.0823 25.8419C37.0434 26.8191 37.5833 28.1444 37.5833 29.5263V33H41V31.2632V29.5263Z" fill="#171717"/>
</svg>
