<svg width="35" height="35" viewBox="0 0 35 35" fill="none" xmlns="http://www.w3.org/2000/svg">
<path fill-rule="evenodd" clip-rule="evenodd" d="M31.25 17.5C31.25 21.1467 29.8013 24.6441 27.2227 27.2227C24.6441 29.8013 21.1467 31.25 17.5 31.25C13.8533 31.25 10.3559 29.8013 7.77728 27.2227C5.19866 24.6441 3.75 21.1467 3.75 17.5C3.75 13.8533 5.19866 10.3559 7.77728 7.77728C10.3559 5.19866 13.8533 3.75 17.5 3.75C21.1467 3.75 24.6441 5.19866 27.2227 7.77728C29.8013 10.3559 31.25 13.8533 31.25 17.5ZM35 17.5C35 22.1413 33.1563 26.5925 29.8744 29.8744C26.5925 33.1562 22.1413 35 17.5 35C12.8587 35 8.40752 33.1562 5.12563 29.8744C1.84374 26.5925 0 22.1413 0 17.5C0 12.8587 1.84374 8.40752 5.12563 5.12563C8.40752 1.84374 12.8587 0 17.5 0C22.1413 0 26.5925 1.84374 29.8744 5.12563C33.1563 8.40752 35 12.8587 35 17.5ZM20.825 24.5875C20.9272 24.8201 21.0757 25.0294 21.2613 25.2029C21.4469 25.3763 21.6658 25.5102 21.9047 25.5965C22.1437 25.6828 22.3976 25.7196 22.6512 25.7047C22.9048 25.6898 23.1528 25.6236 23.38 25.51C23.6072 25.3964 23.809 25.2378 23.973 25.0438C24.1371 24.8499 24.26 24.6246 24.3344 24.3817C24.4087 24.1388 24.4329 23.8833 24.4055 23.6307C24.3781 23.3782 24.2997 23.1338 24.175 22.9125C23.17 20.89 20.5475 19.375 17.5 19.375C14.4525 19.375 11.8325 20.89 10.825 22.9125C10.7003 23.1338 10.6219 23.3782 10.5945 23.6307C10.5671 23.8833 10.5913 24.1388 10.6656 24.3817C10.74 24.6246 10.8629 24.8499 11.027 25.0438C11.191 25.2378 11.3928 25.3964 11.62 25.51C11.8472 25.6236 12.0952 25.6898 12.3488 25.7047C12.6024 25.7196 12.8563 25.6828 13.0953 25.5965C13.3342 25.5102 13.5531 25.3763 13.7387 25.2029C13.9243 25.0294 14.0728 24.8201 14.175 24.5875C14.4175 24.11 15.545 23.125 17.5 23.125C19.455 23.125 20.5825 24.11 20.825 24.5875ZM22.5 17.5C22.0027 17.5 21.5258 17.3025 21.1742 16.9508C20.8225 16.5992 20.625 16.1223 20.625 15.625V13.125C20.625 12.6277 20.8225 12.1508 21.1742 11.7992C21.5258 11.4475 22.0027 11.25 22.5 11.25C22.9973 11.25 23.4742 11.4475 23.8258 11.7992C24.1775 12.1508 24.375 12.6277 24.375 13.125V15.625C24.375 16.1223 24.1775 16.5992 23.8258 16.9508C23.4742 17.3025 22.9973 17.5 22.5 17.5ZM10.625 15.625C10.625 16.1223 10.8225 16.5992 11.1742 16.9508C11.5258 17.3025 12.0027 17.5 12.5 17.5C12.9973 17.5 13.4742 17.3025 13.8258 16.9508C14.1775 16.5992 14.375 16.1223 14.375 15.625V13.125C14.375 12.6277 14.1775 12.1508 13.8258 11.7992C13.4742 11.4475 12.9973 11.25 12.5 11.25C12.0027 11.25 11.5258 11.4475 11.1742 11.7992C10.8225 12.1508 10.625 12.6277 10.625 13.125V15.625Z" fill="#171717"/>
</svg>
