<svg width="21" height="18" viewBox="0 0 21 18" fill="current" xmlns="http://www.w3.org/2000/svg">
<path d="M14.5236 0C12.6053 0 10.9662 1.39902 10.0656 2.36354C9.16502 1.39902 7.52952 0 5.61213 0C2.30727 0 0 2.35699 0 5.73093C0 9.44855 2.86556 11.8514 5.63776 14.1756C6.94653 15.2741 8.30105 16.409 9.33983 17.6676C9.51464 17.8783 9.7709 18 10.04 18H10.0931C10.363 18 10.6184 17.8773 10.7923 17.6676C11.8329 16.409 13.1865 15.2731 14.4962 14.1756C17.2675 11.8524 20.1349 9.44948 20.1349 5.73093C20.1349 2.35699 17.8276 0 14.5236 0Z"/>
</svg>
