<svg width="21" height="11" viewBox="0 0 21 11" fill="current" xmlns="http://www.w3.org/2000/svg">
<path d="M7.08105 6.025H1.00086C0.71728 6.025 0.479743 5.929 0.288246 5.737C0.0967495 5.545 0.000667237 5.30767 0 5.025C0 4.74167 0.0960822 4.50433 0.288246 4.313C0.480411 4.12167 0.717947 4.02567 1.00086 4.025H7.08105L4.75406 1.675C4.57057 1.49167 4.47449 1.26267 4.46582 0.988C4.45714 0.713333 4.55323 0.475667 4.75406 0.275C4.93755 0.0916668 5.17109 0 5.45466 0C5.73824 0 5.97177 0.0916668 6.15526 0.275L10.2087 4.325C10.4089 4.525 10.509 4.75833 10.509 5.025C10.509 5.29167 10.4089 5.525 10.2087 5.725L6.15526 9.775C5.97177 9.95833 5.74257 10.0543 5.46767 10.063C5.19277 10.0717 4.9549 9.97567 4.75406 9.775C4.57057 9.59167 4.47883 9.35833 4.47883 9.075C4.47883 8.79167 4.57057 8.55833 4.75406 8.375L7.08105 6.025ZM12.0103 10.025C11.7267 10.025 11.4892 9.929 11.2977 9.737C11.1062 9.545 11.0101 9.30767 11.0094 9.025C11.0094 8.74167 11.1055 8.50433 11.2977 8.313C11.4898 8.12167 11.7274 8.02567 12.0103 8.025H19.0163C19.2998 8.025 19.5377 8.121 19.7299 8.313C19.922 8.505 20.0178 8.74233 20.0171 9.025C20.0171 9.30833 19.921 9.546 19.7289 9.738C19.5367 9.93 19.2992 10.0257 19.0163 10.025H12.0103ZM12.0103 2.025C11.7267 2.025 11.4892 1.929 11.2977 1.737C11.1062 1.545 11.0101 1.30767 11.0094 1.025C11.0094 0.741667 11.1055 0.504334 11.2977 0.313C11.4898 0.121667 11.7274 0.0256668 12.0103 0.0250001H19.0163C19.2998 0.0250001 19.5377 0.121 19.7299 0.313C19.922 0.505 20.0178 0.742333 20.0171 1.025C20.0171 1.30833 19.921 1.546 19.7289 1.738C19.5367 1.93 19.2992 2.02567 19.0163 2.025H12.0103ZM15.0128 6.025C14.7293 6.025 14.4917 5.929 14.3002 5.737C14.1087 5.545 14.0126 5.30767 14.012 5.025C14.012 4.74167 14.1081 4.50433 14.3002 4.313C14.4924 4.12167 14.7299 4.02567 15.0128 4.025H19.0163C19.2998 4.025 19.5377 4.121 19.7299 4.313C19.922 4.505 20.0178 4.74233 20.0171 5.025C20.0171 5.30833 19.921 5.546 19.7289 5.738C19.5367 5.93 19.2992 6.02567 19.0163 6.025H15.0128Z"/>
</svg>
