<svg width="16" height="16" viewBox="0 0 16 16" xmlns="http://www.w3.org/2000/svg">
<path d="M3.4 9.54662V7.95552H11.9V9.54662H3.4ZM3.4 12.7288V11.1377H9.35V12.7288H3.4ZM1.7 15.911C1.2325 15.911 0.832433 15.7554 0.4998 15.444C0.167167 15.1327 0.000566667 14.758 0 14.3199V3.18221C0 2.74465 0.1666 2.37021 0.4998 2.05889C0.833 1.74756 1.23307 1.59163 1.7 1.5911H2.55V0H4.25V1.5911H11.05V0H12.75V1.5911H13.6C14.0675 1.5911 14.4678 1.74703 14.801 2.05889C15.1342 2.37074 15.3006 2.74518 15.3 3.18221V14.3199C15.3 14.7575 15.1337 15.1322 14.801 15.444C14.4684 15.7559 14.0681 15.9116 13.6 15.911H1.7ZM1.7 14.3199H13.6V6.36441H1.7V14.3199Z"/>
</svg>
