<svg width="17" height="16" viewBox="0 0 17 16" xmlns="http://www.w3.org/2000/svg">
<path d="M12.2624 0C10.6428 0 9.25882 1.24358 8.49845 2.10093C7.73809 1.24358 6.35723 0 4.73836 0C1.94805 0 0 2.0951 0 5.09416C0 8.39871 2.41941 10.5346 4.76 12.6006C5.865 13.5769 7.00864 14.5858 7.88568 15.7045C8.03327 15.8918 8.24964 16 8.47682 16H8.52164C8.74959 16 8.96518 15.891 9.112 15.7045C9.99059 14.5858 11.1335 13.5761 12.2392 12.6006C14.579 10.5354 17 8.39954 17 5.09416C17 2.0951 15.052 0 12.2624 0Z"/>
</svg>
