<svg width="17" height="16" viewBox="0 0 17 16" xmlns="http://www.w3.org/2000/svg">
<path d="M13.1827 15.911H14.4655C15.1145 15.911 15.6477 15.4409 15.725 14.8479L17 2.92908H13.1364V0H11.6141V2.92908H7.77364L8.00545 4.62143C9.32682 4.96135 10.5632 5.57609 11.305 6.25593C12.4177 7.28291 13.1827 8.34606 13.1827 10.0818V15.911ZM0 15.1878V14.4646H11.6141V15.1878C11.6141 15.5783 11.2664 15.911 10.8182 15.911H0.772727C0.347727 15.911 0 15.5783 0 15.1878ZM11.6141 10.1252C11.6141 4.33937 0 4.33937 0 10.1252H11.6141ZM0 11.5717H11.5909V13.0181H0V11.5717Z" />
</svg>
