<svg width="18" height="16" viewBox="0 0 18 16" xmlns="http://www.w3.org/2000/svg">
<path d="M3 2.38665H15C15.2652 2.38665 15.5196 2.47047 15.7071 2.61967C15.8946 2.76886 16 2.97121 16 3.18221C16 3.3932 15.8946 3.59555 15.7071 3.74475C15.5196 3.89394 15.2652 3.97776 15 3.97776H3C2.73478 3.97776 2.48043 3.89394 2.29289 3.74475C2.10536 3.59555 2 3.3932 2 3.18221C2 2.97121 2.10536 2.76886 2.29289 2.61967C2.48043 2.47047 2.73478 2.38665 3 2.38665ZM18 0V1.5911H0V0H18ZM12 4.77331H14V15.911H12V4.77331ZM4 4.77331H6V15.911H4V4.77331ZM8 4.77331H10V15.911H8V4.77331Z"/>
</svg>
