<svg width="19" height="16" viewBox="0 0 19 16" xmlns="http://www.w3.org/2000/svg">
<path d="M17.85 7.95552V14.3199C17.85 14.7419 17.6709 15.1466 17.3521 15.445C17.0333 15.7434 16.6009 15.911 16.15 15.911H2.55C2.09913 15.911 1.66673 15.7434 1.34792 15.445C1.02911 15.1466 0.85 14.7419 0.85 14.3199V7.95552C0.624566 7.95552 0.408365 7.8717 0.248959 7.7225C0.0895533 7.57331 0 7.37096 0 7.15996V4.77331C0 4.35132 0.179107 3.94662 0.497919 3.64823C0.81673 3.34984 1.24913 3.18221 1.7 3.18221H4.3945C4.29844 2.92662 4.24957 2.65759 4.25 2.38666C4.25 1.75367 4.51866 1.14662 4.99688 0.699035C5.4751 0.25145 6.1237 0 6.8 0C7.65 0 8.398 0.397776 8.8655 0.986484V0.978528L9.35 1.5911L9.8345 0.978528V0.986484C10.302 0.397776 11.05 0 11.9 0C12.5763 0 13.2249 0.25145 13.7031 0.699035C14.1813 1.14662 14.45 1.75367 14.45 2.38666C14.4504 2.65759 14.4016 2.92662 14.3055 3.18221H17C17.4509 3.18221 17.8833 3.34984 18.2021 3.64823C18.5209 3.94662 18.7 4.35132 18.7 4.77331V7.15996C18.7 7.37096 18.6104 7.57331 18.451 7.7225C18.2916 7.8717 18.0754 7.95552 17.85 7.95552ZM2.55 14.3199H8.5V7.95552H2.55V14.3199ZM16.15 14.3199V7.95552H10.2V14.3199H16.15ZM6.8 1.5911C6.57457 1.5911 6.35837 1.67492 6.19896 1.82412C6.03955 1.97331 5.95 2.17566 5.95 2.38666C5.95 2.59765 6.03955 2.8 6.19896 2.94919C6.35837 3.09839 6.57457 3.18221 6.8 3.18221C7.02543 3.18221 7.24164 3.09839 7.40104 2.94919C7.56045 2.8 7.65 2.59765 7.65 2.38666C7.65 2.17566 7.56045 1.97331 7.40104 1.82412C7.24164 1.67492 7.02543 1.5911 6.8 1.5911ZM11.9 1.5911C11.6746 1.5911 11.4584 1.67492 11.299 1.82412C11.1396 1.97331 11.05 2.17566 11.05 2.38666C11.05 2.59765 11.1396 2.8 11.299 2.94919C11.4584 3.09839 11.6746 3.18221 11.9 3.18221C12.1254 3.18221 12.3416 3.09839 12.501 2.94919C12.6604 2.8 12.75 2.59765 12.75 2.38666C12.75 2.17566 12.6604 1.97331 12.501 1.82412C12.3416 1.67492 12.1254 1.5911 11.9 1.5911ZM1.7 4.77331V6.36441H8.5V4.77331H1.7ZM10.2 4.77331V6.36441H17V4.77331H10.2Z"/>
</svg>
