<svg width="21" height="16" viewBox="0 0 21 16" xmlns="http://www.w3.org/2000/svg">
<path d="M20.1243 0.980817C20.1243 0.722307 20.0146 0.474384 19.8192 0.29159C19.6239 0.108796 19.3591 0.00610283 19.0828 0.00610283C19.0298 0.00610283 18.9788 0.0135135 18.9275 0.0207062V0H1.04142V0.00610283C0.765222 0.00610283 0.500331 0.108796 0.305026 0.29159C0.109721 0.474384 0 0.722307 0 0.980817V15.0392H0.0116439C0.0703288 15.5255 0.506041 15.9049 1.04119 15.9049V15.911H18.9273V15.8903C18.9783 15.8975 19.0293 15.9049 19.0826 15.9049C19.618 15.9049 20.0537 15.5257 20.1124 15.0392H20.1306V0.980817H20.1243ZM17.812 13.7408H15.2828C15.2743 13.7073 15.2613 13.6749 15.2441 13.6445L15.2483 13.6423L9.95758 5.06559L9.95548 5.06668C9.89712 4.95323 9.80578 4.85748 9.69193 4.7904C9.57808 4.72332 9.44634 4.68763 9.31181 4.68743C9.17357 4.6876 9.03833 4.72515 8.92236 4.79556C8.80639 4.86598 8.71463 4.96626 8.65812 5.08434L5.13726 10.7918L4.27515 9.39448L4.27399 9.39514C4.24325 9.3353 4.19511 9.28479 4.13509 9.2494C4.07508 9.21401 4.00562 9.19517 3.93468 9.19505C3.78122 9.19505 3.64964 9.28115 3.59026 9.40386L2.31875 11.4651V2.17632H17.812V13.7408Z"/>
</svg>
