<svg width="20" height="21" viewBox="0 0 20 21" xmlns="http://www.w3.org/2000/svg">
<path d="M10.8383 16.1815C10.9502 16.2892 11.0389 16.4172 11.0995 16.5581C11.1601 16.6991 11.1912 16.8502 11.1912 17.0028C11.1912 17.1554 11.1601 17.3065 11.0995 17.4474C11.0389 17.5883 10.9502 17.7163 10.8383 17.824L10.2444 18.398C9.11901 19.4855 7.59262 20.0965 6.00105 20.0965C4.40947 20.0965 2.88308 19.4855 1.75767 18.398C0.632251 17.3104 0 15.8354 0 14.2974C0 12.7594 0.632251 11.2843 1.75767 10.1968L4.16931 7.86725C5.25064 6.81973 6.70552 6.21139 8.23594 6.16684C9.76637 6.12229 11.2565 6.64491 12.4011 7.62763C12.5193 7.72914 12.6156 7.85215 12.6846 7.98963C12.7536 8.12711 12.7939 8.27638 12.8031 8.4289C12.8124 8.58143 12.7905 8.73422 12.7387 8.87857C12.6869 9.02292 12.6061 9.15599 12.5011 9.27019C12.3961 9.38439 12.2688 9.47747 12.1265 9.54413C11.9842 9.61079 11.8298 9.64971 11.6719 9.65868C11.5141 9.66765 11.356 9.6465 11.2066 9.59642C11.0572 9.54634 10.9195 9.46832 10.8013 9.36681C10.115 8.77774 9.22161 8.46435 8.30403 8.49075C7.38644 8.51716 6.51396 8.88135 5.86507 9.50884L3.45542 11.8355C2.78028 12.4879 2.40098 13.3728 2.40098 14.2954C2.40098 15.2181 2.78028 16.103 3.45542 16.7554C4.13056 17.4078 5.04625 17.7744 6.00105 17.7744C6.95584 17.7744 7.87153 17.4078 8.54668 16.7554L9.14059 16.1815C9.25202 16.0737 9.38435 15.9882 9.53 15.9298C9.67566 15.8715 9.83179 15.8414 9.98947 15.8414C10.1471 15.8414 10.3033 15.8715 10.4489 15.9298C10.5946 15.9882 10.7269 16.0737 10.8383 16.1815ZM18.2453 2.46132C17.1189 1.37545 15.5929 0.765625 14.0019 0.765625C12.4109 0.765625 10.8848 1.37545 9.7585 2.46132L9.16459 3.03525C8.93919 3.25306 8.81256 3.54848 8.81256 3.85652C8.81256 4.16456 8.93919 4.45998 9.16459 4.6778C9.38999 4.89562 9.6957 5.01798 10.0145 5.01798C10.3332 5.01798 10.6389 4.89562 10.8643 4.6778L11.4583 4.10387C12.1334 3.45145 13.0491 3.08492 14.0039 3.08492C14.9587 3.08492 15.8744 3.45145 16.5495 4.10387C17.2247 4.7563 17.6039 5.64117 17.6039 6.56384C17.6039 7.48651 17.2247 8.37138 16.5495 9.02381L14.1389 11.3543C13.4894 11.9815 12.6164 12.3452 11.6986 12.3709C10.7808 12.3966 9.88752 12.0823 9.20158 11.4925C9.08341 11.391 8.9457 11.3129 8.79633 11.2629C8.64695 11.2128 8.48883 11.1916 8.331 11.2006C8.17316 11.2096 8.0187 11.2485 7.87643 11.3152C7.73416 11.3818 7.60687 11.4749 7.50183 11.5891C7.39679 11.7033 7.31605 11.8364 7.26423 11.9807C7.2124 12.1251 7.19051 12.2779 7.19979 12.4304C7.20908 12.5829 7.24936 12.7322 7.31834 12.8696C7.38732 13.0071 7.48364 13.1301 7.60181 13.2316C8.74563 14.2142 10.2348 14.7371 11.7645 14.6934C13.2942 14.6498 14.7488 14.0429 15.8306 12.9969L18.2423 10.6673C19.3673 9.57916 19.9994 8.10406 20 6.56589C20.0006 5.02771 19.3695 3.55218 18.2453 2.46325V2.46132Z"/>
</svg>
